<?xml version="1.0" encoding="UTF-8" standalone="no"?>
<!DOCTYPE svg PUBLIC "-//W3C//DTD SVG 1.1//EN" "http://www.w3.org/Graphics/SVG/1.1/DTD/svg11.dtd">
<svg xmlns="http://www.w3.org/2000/svg" version="1.1" viewBox="0 0 219 369" width="219.0pt" height="369.0pt">
<path d="M 0.00 0.00 L 130.79 0.00 C 125.54 1.86 120.67 3.56 116.74 7.74 C 113.67 11.28 111.22 15.59 110.15 20.18 C 109.83 23.41 109.91 26.71 110.05 29.94 C 111.33 37.47 115.75 42.15 119.86 48.14 C 124.68 54.47 128.69 61.61 134.00 67.52 C 139.03 61.71 143.70 55.55 148.67 49.68 C 152.92 44.03 157.62 39.76 159.83 32.83 C 163.06 23.80 159.48 12.84 152.29 6.71 C 149.26 3.37 144.33 1.76 140.26 0.00 L 219.00 0.00 L 219.00 369.00 L 119.08 369.00 C 121.47 368.14 123.96 367.95 126.42 367.38 C 143.32 363.46 158.43 353.81 169.59 340.60 C 177.92 330.01 184.61 317.13 186.75 303.74 C 190.29 285.59 187.02 266.15 177.95 250.03 C 174.70 244.68 170.98 239.71 167.38 234.61 C 150.83 211.55 134.44 188.50 118.06 165.32 C 122.60 164.10 126.86 162.35 128.71 157.66 C 129.28 155.27 129.11 152.60 128.92 150.16 C 127.26 145.61 122.89 142.73 118.05 142.97 C 111.02 143.02 104.00 142.98 96.97 142.99 C 92.84 142.66 88.84 146.87 87.28 150.35 C 86.69 153.55 86.46 157.63 88.76 160.26 C 91.04 163.20 94.61 164.38 98.05 165.40 C 83.41 186.00 68.65 206.45 54.14 227.15 C 48.14 235.79 41.34 244.08 36.34 253.32 C 31.53 264.06 28.04 275.12 27.97 286.98 C 27.26 305.44 33.50 323.68 44.70 338.29 C 50.42 346.12 57.66 351.99 65.66 357.32 C 74.38 362.95 84.50 366.73 94.74 368.37 L 96.78 369.00 L 0.00 369.00 L 0.00 0.00 Z" fill="#ffffff" />
<path d="M 130.79 0.00 L 140.26 0.00 C 144.33 1.76 149.26 3.37 152.29 6.71 C 159.48 12.84 163.06 23.80 159.83 32.83 C 157.62 39.76 152.92 44.03 148.67 49.68 C 143.70 55.55 139.03 61.71 134.00 67.52 C 128.69 61.61 124.68 54.47 119.86 48.14 C 115.75 42.15 111.33 37.47 110.05 29.94 C 109.91 26.71 109.83 23.41 110.15 20.18 C 111.22 15.59 113.67 11.28 116.74 7.74 C 120.67 3.56 125.54 1.86 130.79 0.00 Z" fill="#000000" />
<path d="M 75.37 51.33 C 80.83 50.15 86.67 51.19 90.61 55.37 C 92.84 58.29 94.49 61.44 95.02 65.10 C 95.26 70.04 92.64 73.98 89.62 77.61 C 85.94 81.79 82.77 86.43 79.00 90.52 C 74.68 85.69 71.08 79.95 67.39 74.61 C 64.02 69.58 63.50 63.71 66.34 58.33 C 68.75 55.25 71.64 52.68 75.37 51.33 Z" fill="#000000" />
<path d="M 115.63 100.35 C 119.00 102.88 121.69 106.13 122.95 110.20 C 123.47 114.32 121.69 118.85 118.81 121.80 C 115.55 125.72 112.35 129.71 108.99 133.53 C 105.36 129.80 103.15 125.21 99.83 121.16 C 97.48 117.89 95.49 112.96 96.92 108.97 C 97.61 104.85 101.30 101.60 104.93 99.96 C 108.14 98.14 112.41 98.94 115.63 100.35 Z" fill="#000000" />
<path d="M 96.97 142.99 C 104.00 142.98 111.02 143.02 118.05 142.97 C 122.89 142.73 127.26 145.61 128.92 150.16 C 129.11 152.60 129.28 155.27 128.71 157.66 C 126.86 162.35 122.60 164.10 118.06 165.32 C 134.44 188.50 150.83 211.55 167.38 234.61 C 170.98 239.71 174.70 244.68 177.95 250.03 C 187.02 266.15 190.29 285.59 186.75 303.74 C 184.61 317.13 177.92 330.01 169.59 340.60 C 158.43 353.81 143.32 363.46 126.42 367.38 C 123.96 367.95 121.47 368.14 119.08 369.00 L 96.78 369.00 L 94.74 368.37 C 84.50 366.73 74.38 362.95 65.66 357.32 C 57.66 351.99 50.42 346.12 44.70 338.29 C 33.50 323.68 27.26 305.44 27.97 286.98 C 28.04 275.12 31.53 264.06 36.34 253.32 C 41.34 244.08 48.14 235.79 54.14 227.15 C 68.65 206.45 83.41 186.00 98.05 165.40 C 94.61 164.38 91.04 163.20 88.76 160.26 C 86.46 157.63 86.69 153.55 87.28 150.35 C 88.84 146.87 92.84 142.66 96.97 142.99 Z" fill="#000000" />
<path d="M 151.71 243.95 C 153.46 246.04 154.87 248.35 156.45 250.57 C 163.19 258.95 167.38 269.44 168.93 280.04 C 169.06 285.62 169.11 291.33 168.90 296.90 C 167.26 307.44 163.24 318.13 156.45 326.45 C 145.86 340.35 129.33 348.55 112.03 350.00 C 93.12 351.16 73.77 342.94 61.30 328.70 C 55.83 321.92 51.42 314.35 49.11 305.90 C 46.14 297.28 47.01 289.05 47.10 280.10 C 48.36 272.06 50.94 264.00 55.15 257.00 C 59.25 256.92 63.54 257.32 67.59 256.59 C 71.45 255.72 75.40 256.24 79.27 255.31 C 96.85 253.17 114.07 249.18 131.57 246.57 C 138.26 245.37 145.00 244.99 151.71 243.95 Z" fill="#ffffff" />
</svg>